<?xml version="1.0" encoding="utf-8"?>
<!-- Generator: Adobe Illustrator 16.0.0, SVG Export Plug-In . SVG Version: 6.00 Build 0)  -->
<!DOCTYPE svg PUBLIC "-//W3C//DTD SVG 1.1//EN" "http://www.w3.org/Graphics/SVG/1.1/DTD/svg11.dtd">
<svg version="1.1" id="Layer_1" xmlns="http://www.w3.org/2000/svg" xmlns:xlink="http://www.w3.org/1999/xlink" x="0px" y="0px"
	 width="27px" height="27px" viewBox="0 0 27 27" enable-background="new 0 0 27 27" xml:space="preserve">
<g id="Layer_19">
	<path fill="#363D47" d="M26.146,0H3.144C3.07,0,3.005,0,2.931,0.019c0.019,0,0.037,0,0.056,0c13.224,0,23.958,10.716,23.958,23.958
		c0,0.074,0,0.121,0,0.195C26.981,24.07,27,23.957,27,23.838V1.04C27,0.372,26.647,0,26.146,0z"/>
</g>
<g id="Layer_20">
	<polygon fill="#20425E" points="24.038,2.248 22.152,4.132 21.429,3.398 20.844,3.975 22.152,5.284 24.623,2.813 	"/>
</g>
<g id="Layer_20_1_">
	<polygon fill="#FFFFFF" points="23.945,2.248 22.06,4.132 21.335,3.398 20.75,3.975 22.06,5.284 24.529,2.813 	"/>
</g>
</svg>
