<?xml version="1.0" encoding="utf-8"?>
<!-- Generator: Adobe Illustrator 16.0.0, SVG Export Plug-In . SVG Version: 6.00 Build 0)  -->
<!DOCTYPE svg PUBLIC "-//W3C//DTD SVG 1.1//EN" "http://www.w3.org/Graphics/SVG/1.1/DTD/svg11.dtd">
<svg version="1.1" id="Layer_1" xmlns="http://www.w3.org/2000/svg" xmlns:xlink="http://www.w3.org/1999/xlink" x="0px" y="0px"
	 width="27px" height="27px" viewBox="0 0 27 27" enable-background="new 0 0 27 27" xml:space="preserve">
<g id="Layer_19_1_">
	
		<linearGradient id="SVGID_1_" gradientUnits="userSpaceOnUse" x1="-74.7134" y1="-13.3418" x2="-62.714" y2="-1.3424" gradientTransform="matrix(0.99 0 0 -0.99 88.85 -1.0599)">
		<stop  offset="0" style="stop-color:#2977C4"/>
		<stop  offset="1" style="stop-color:#3F9CF8"/>
	</linearGradient>
	<path fill="url(#SVGID_1_)" d="M26.144,0H3.107C3.032,0,2.968,0,2.893,0.019c0.019,0,0.037,0,0.056,0
		c13.244,0,23.996,10.733,23.996,23.997c0,0.072,0,0.12,0,0.193C26.981,24.107,27,23.996,27,23.874V1.05C27,0.372,26.646,0,26.144,0
		z"/>
</g>
<g id="Layer_20_3_">
	<polygon fill="#20425E" points="24.033,2.26 22.145,4.139 21.419,3.414 20.833,3.981 22.145,5.302 24.619,2.827 	"/>
</g>
<g id="Layer_20_2_">
	<polygon fill="#FFFFFF" points="23.94,2.26 22.051,4.139 21.327,3.414 20.74,3.981 22.051,5.302 24.526,2.827 	"/>
</g>
</svg>
