<?xml version="1.0" encoding="utf-8"?>
<!-- Generator: Adobe Illustrator 16.0.0, SVG Export Plug-In . SVG Version: 6.00 Build 0)  -->
<!DOCTYPE svg PUBLIC "-//W3C//DTD SVG 1.1//EN" "http://www.w3.org/Graphics/SVG/1.1/DTD/svg11.dtd">
<svg version="1.1" id="Layer_1" xmlns="http://www.w3.org/2000/svg" xmlns:xlink="http://www.w3.org/1999/xlink" x="0px" y="0px"
	 width="27px" height="27px" viewBox="0 0 27 27" enable-background="new 0 0 27 27" xml:space="preserve">
<g>
	<path fill="#2D7AB5" d="M23.836,0.021H3.162c-1.745,0-3.14,1.396-3.14,3.141v20.676c0,1.745,1.396,3.141,3.14,3.141h20.674
		c1.746,0,3.143-1.396,3.143-3.141V3.162C26.979,1.417,25.582,0.021,23.836,0.021z"/>
</g>
<path fill="#FFFFFF" d="M25.212,23.771c0,0.872-0.699,1.572-1.569,1.572H3.315c-0.873,0-1.571-0.7-1.571-1.572V3.445
	c0-0.873,0.699-1.57,1.571-1.57h20.328c0.87,0,1.569,0.698,1.569,1.57V23.771z"/>
<polygon fill="#2D7AB5" points="11.167,14.961 7.938,11.733 5.409,14.262 11.167,20.108 22.071,9.203 19.454,6.673 "/>
</svg>
