<?xml version="1.0" encoding="utf-8"?>
<!-- Generator: Adobe Illustrator 16.0.0, SVG Export Plug-In . SVG Version: 6.00 Build 0)  -->
<!DOCTYPE svg PUBLIC "-//W3C//DTD SVG 1.1//EN" "http://www.w3.org/Graphics/SVG/1.1/DTD/svg11.dtd">
<svg version="1.1" id="Layer_1" xmlns="http://www.w3.org/2000/svg" xmlns:xlink="http://www.w3.org/1999/xlink" x="0px" y="0px"
	 width="27px" height="27px" viewBox="0 0 27 27" enable-background="new 0 0 27 27" xml:space="preserve">
<path fill="#CCCCCC" d="M23.824,0.033H3.142C1.396,0.033,0,1.43,0,3.175v20.682C0,25.604,1.396,27,3.142,27h20.682
	c1.745,0,3.142-1.396,3.142-3.143V3.175C26.966,1.43,25.569,0.033,23.824,0.033z"/>
<path fill="#FFFFFF" d="M25.221,23.771c0,0.872-0.698,1.571-1.57,1.571H3.316c-0.872,0-1.57-0.699-1.57-1.571V3.437
	c0-0.873,0.698-1.571,1.57-1.571H23.65c0.872,0,1.57,0.698,1.57,1.571V23.771z"/>
</svg>
