<?xml version="1.0" encoding="utf-8"?>
<!-- Generator: Adobe Illustrator 16.0.0, SVG Export Plug-In . SVG Version: 6.00 Build 0)  -->
<!DOCTYPE svg PUBLIC "-//W3C//DTD SVG 1.1//EN" "http://www.w3.org/Graphics/SVG/1.1/DTD/svg11.dtd">
<svg version="1.1" id="Layer_1" xmlns="http://www.w3.org/2000/svg" xmlns:xlink="http://www.w3.org/1999/xlink" x="0px" y="0px"
	 width="27px" height="27px" viewBox="0 0 27 27" enable-background="new 0 0 27 27" xml:space="preserve">
<circle fill="#FFFFFF" cx="13.529" cy="13.53" r="13.529"/>
<circle fill="#363D47" cx="13.529" cy="13.53" r="11.423"/>
<path fill="#FDFEFF" d="M7.402,14.04c-0.319-0.319-0.319-0.702,0-1.021l4.723-4.723c0.317-0.319,0.701-0.319,1.021,0
	c0.318,0.319,0.318,0.702,0,1.021l-3.511,3.51h9.126c0.383,0,0.702,0.318,0.702,0.702c0,0.382-0.319,0.703-0.702,0.703H9.636
	l3.511,3.316c0.318,0.319,0.318,0.703,0,1.022c-0.32,0.319-0.704,0.319-1.021,0L7.402,14.04z"/>
</svg>
