<?xml version="1.0" encoding="utf-8"?>
<!-- Generator: Adobe Illustrator 16.0.0, SVG Export Plug-In . SVG Version: 6.00 Build 0)  -->
<!DOCTYPE svg PUBLIC "-//W3C//DTD SVG 1.1//EN" "http://www.w3.org/Graphics/SVG/1.1/DTD/svg11.dtd">
<svg version="1.1" id="Layer_1" xmlns="http://www.w3.org/2000/svg" xmlns:xlink="http://www.w3.org/1999/xlink" x="0px" y="0px"
	 width="27px" height="27px" viewBox="0 0 27 27" enable-background="new 0 0 27 27" xml:space="preserve">
<circle fill="#FFFFFF" cx="13.53" cy="13.529" r="13.529"/>
<circle fill="#363D47" cx="13.53" cy="13.53" r="11.424"/>
<path fill="#FDFEFF" d="M14.934,18.571c-0.317,0.319-0.701,0.319-1.021,0c-0.318-0.319-0.318-0.703,0-1.022l3.511-3.316H8.296
	c-0.383,0-0.702-0.32-0.702-0.703c0-0.384,0.319-0.702,0.702-0.702h9.126l-3.511-3.51c-0.318-0.319-0.318-0.702,0-1.021
	c0.32-0.319,0.704-0.319,1.021,0l4.723,4.723c0.319,0.319,0.319,0.702,0,1.021L14.934,18.571z"/>
</svg>
