<?xml version="1.0" encoding="utf-8"?>
<!-- Generator: Adobe Illustrator 16.0.0, SVG Export Plug-In . SVG Version: 6.00 Build 0)  -->
<!DOCTYPE svg PUBLIC "-//W3C//DTD SVG 1.1//EN" "http://www.w3.org/Graphics/SVG/1.1/DTD/svg11.dtd">
<svg version="1.1" id="apps_x5F_menu" xmlns="http://www.w3.org/2000/svg" xmlns:xlink="http://www.w3.org/1999/xlink" x="0px"
	 y="0px" width="25.46px" height="26.938px" viewBox="0 0 25.46 26.938" enable-background="new 0 0 25.46 26.938"
	 xml:space="preserve">
<g>
	<path d="M25.067,17.383c-0.473-0.474-1.183-0.474-1.655,0l-5.558,5.556V1.183c0-0.71-0.591-1.183-1.183-1.183
		c-0.709,0-1.182,0.591-1.182,1.183v21.756l-5.558-5.556c-0.474-0.474-1.183-0.474-1.655,0c-0.474,0.472-0.474,1.181,0,1.653
		l7.686,7.687c0.236,0.236,0.592,0.354,0.828,0.354c0.354,0,0.592-0.118,0.826-0.354l7.688-7.687
		C25.541,18.564,25.541,17.855,25.067,17.383z"/>
	<path d="M1.419,4.257h8.513c0.828,0,1.418-0.592,1.418-1.419c0-0.828-0.59-1.419-1.418-1.419H1.419C0.591,1.419,0,2.01,0,2.838
		C0,3.665,0.71,4.257,1.419,4.257z"/>
	<path d="M1.419,9.932h8.513c0.828,0,1.418-0.591,1.418-1.419s-0.59-1.419-1.418-1.419H1.419C0.591,7.094,0,7.686,0,8.513
		C0,9.342,0.71,9.932,1.419,9.932z"/>
	<path d="M11.351,14.189c0-0.828-0.59-1.418-1.418-1.418H1.419C0.591,12.771,0,13.361,0,14.189s0.591,1.419,1.419,1.419h8.513
		C10.642,15.608,11.351,14.899,11.351,14.189z"/>
</g>
</svg>
