<?xml version="1.0" encoding="utf-8"?>
<!-- Generator: Adobe Illustrator 16.0.0, SVG Export Plug-In . SVG Version: 6.00 Build 0)  -->
<!DOCTYPE svg PUBLIC "-//W3C//DTD SVG 1.1//EN" "http://www.w3.org/Graphics/SVG/1.1/DTD/svg11.dtd">
<svg version="1.1" id="Layer_1" xmlns="http://www.w3.org/2000/svg" xmlns:xlink="http://www.w3.org/1999/xlink" x="0px" y="0px"
	 width="21.087px" height="22.77px" viewBox="0 0 21.087 22.77" enable-background="new 0 0 21.087 22.77" xml:space="preserve">
<g>
	<path d="M6.731,8.217c0.396,0.396,0.99,0.396,1.387,0l4.652-4.653v18.216c0,0.594,0.495,0.99,0.99,0.99
		c0.594,0,0.99-0.496,0.99-0.99V3.465l4.652,4.653c0.396,0.396,0.99,0.396,1.387,0c0.396-0.396,0.396-0.99,0-1.386l-6.436-6.435
		C14.156,0.099,13.859,0,13.662,0c-0.297,0-0.495,0.099-0.693,0.297L6.534,6.732C6.336,7.128,6.336,7.822,6.731,8.217z"/>
	<path d="M1.188,13.068h7.128c0.693,0,1.188-0.494,1.188-1.188s-0.495-1.188-1.188-1.188H1.188C0.495,10.692,0,11.187,0,11.88
		C0,12.474,0.495,13.068,1.188,13.068z"/>
	<path d="M1.188,17.722h7.128c0.693,0,1.188-0.496,1.188-1.188c0-0.693-0.495-1.188-1.188-1.188H1.188
		C0.495,15.345,0,15.84,0,16.533C0,17.226,0.495,17.722,1.188,17.722z"/>
	<path d="M9.504,21.285c0-0.693-0.495-1.188-1.188-1.188H1.188C0.495,20.097,0,20.592,0,21.285c0,0.692,0.495,1.188,1.188,1.188
		h7.128C8.91,22.474,9.504,21.978,9.504,21.285z"/>
</g>
</svg>
