<?xml version="1.0" encoding="utf-8"?>
<!-- Generator: Adobe Illustrator 16.0.0, SVG Export Plug-In . SVG Version: 6.00 Build 0)  -->
<!DOCTYPE svg PUBLIC "-//W3C//DTD SVG 1.1//EN" "http://www.w3.org/Graphics/SVG/1.1/DTD/svg11.dtd">
<svg version="1.1" id="Layer_1" xmlns="http://www.w3.org/2000/svg" xmlns:xlink="http://www.w3.org/1999/xlink" x="0px" y="0px"
	 width="27px" height="27px" viewBox="0 0 27 27" enable-background="new 0 0 27 27" xml:space="preserve">
<circle fill="#363D47" cx="13.494" cy="13.533" r="13.479"/>
<path fill="#FFFFFF" d="M18.757,12.251c0.297,0.297,0.297,0.68,0,0.978c-0.298,0.298-0.681,0.298-0.978,0l-3.273-3.485v9.052
	c0,0.382-0.297,0.68-0.68,0.68c-0.382,0-0.68-0.298-0.68-0.68V9.744l-3.485,3.485c-0.298,0.298-0.68,0.298-0.978,0
	c-0.298-0.298-0.298-0.68,0-0.978l4.675-4.675c0.298-0.297,0.68-0.297,0.977,0L18.757,12.251z"/>
</svg>
